HIERARCHY
ROOT Hips
{
	OFFSET -14.64140 90.27770 -84.91600
	CHANNELS 6 Xposition Yposition Zposition Zrotation Xrotation Yrotation
	JOINT Spine
	{
		OFFSET 0.00000 13.20850 -1.60436
		CHANNELS 3 Zrotation Xrotation Yrotation
		JOINT Spine1
		{
			OFFSET 0.00000 8.61716 0.00000
			CHANNELS 3 Zrotation Xrotation Yrotation
			JOINT Spine2
			{
				OFFSET 0.00000 8.61717 0.00000
				CHANNELS 3 Zrotation Xrotation Yrotation
				JOINT Spine3
				{
					OFFSET 0.00000 8.61717 0.00000
					CHANNELS 3 Zrotation Xrotation Yrotation
					JOINT Neck
					{
						OFFSET 0.00000 11.07920 1.10792
						CHANNELS 3 Zrotation Xrotation Yrotation
						JOINT Neck1
						{
							OFFSET 0.00000 7.08032 0.00000
							CHANNELS 3 Zrotation Xrotation Yrotation
							JOINT Head
							{
								OFFSET 0.00000 7.08031 0.00000
								CHANNELS 3 Zrotation Xrotation Yrotation
								End site
								{
									OFFSET 0.00000 0.00000 0.00000
								}
							}
						}
					}
					JOINT RightShoulder
					{
						OFFSET -0.01000 7.91373 5.19711
						CHANNELS 3 Zrotation Xrotation Yrotation
						JOINT RightArm
						{
							OFFSET -18.41580 0.00000 0.00000
							CHANNELS 3 Zrotation Xrotation Yrotation
							JOINT RightForeArm
							{
								OFFSET -29.11090 0.00000 0.00000
								CHANNELS 3 Zrotation Xrotation Yrotation
								JOINT RightHand
								{
									OFFSET -24.65040 0.00000 0.00000
									CHANNELS 3 Zrotation Xrotation Yrotation
									JOINT RightHandThumb1
									{
										OFFSET -5.35114 -0.85590 3.97906
										CHANNELS 3 Zrotation Xrotation Yrotation
										JOINT RightHandThumb2
										{
											OFFSET -4.52789 0.00000 0.00000
											CHANNELS 3 Zrotation Xrotation Yrotation
											JOINT RightHandThumb3
											{
												OFFSET -2.46976 0.00000 0.00000
												CHANNELS 3 Zrotation Xrotation Yrotation
												End site
												{
													OFFSET 0.00000 0.00000 0.00000
												}
											}
										}
									}
									JOINT RightHandIndex1
									{
										OFFSET -14.26970 0.00000 2.88139
										CHANNELS 3 Zrotation Xrotation Yrotation
										JOINT RightHandIndex2
										{
											OFFSET -5.48836 0.00000 0.00000
											CHANNELS 3 Zrotation Xrotation Yrotation
											JOINT RightHandIndex3
											{
												OFFSET -3.01859 0.00000 0.00000
												CHANNELS 3 Zrotation Xrotation Yrotation
												End site
												{
													OFFSET 0.00000 0.00000 0.00000
												}
											}
										}
									}
									JOINT RightHandMiddle1
									{
										OFFSET -14.26970 0.00000 -0.09147
										CHANNELS 3 Zrotation Xrotation Yrotation
										JOINT RightHandMiddle2
										{
											OFFSET -6.17441 0.00000 0.00000
											CHANNELS 3 Zrotation Xrotation Yrotation
											JOINT RightHandMiddle3
											{
												OFFSET -3.56743 0.00000 0.00000
												CHANNELS 3 Zrotation Xrotation Yrotation
												End site
												{
													OFFSET 0.00000 0.00000 0.00000
												}
											}
										}
									}
									JOINT RightHandRing1
									{
										OFFSET -12.69180 0.00000 -3.06433
										CHANNELS 3 Zrotation Xrotation Yrotation
										JOINT RightHandRing2
										{
											OFFSET -5.62556 0.00000 0.00000
											CHANNELS 3 Zrotation Xrotation Yrotation
											JOINT RightHandRing3
											{
												OFFSET -3.56744 0.00000 0.00000
												CHANNELS 3 Zrotation Xrotation Yrotation
												End site
												{
													OFFSET 0.00000 0.00000 0.00000
												}
											}
										}
									}
									JOINT RightHandPinky1
									{
										OFFSET -11.11390 0.00000 -6.03719
										CHANNELS 3 Zrotation Xrotation Yrotation
										JOINT RightHandPinky2
										{
											OFFSET -4.52789 0.00000 0.00000
											CHANNELS 3 Zrotation Xrotation Yrotation
											JOINT RightHandPinky3
											{
												OFFSET -2.46976 0.00000 0.00000
												CHANNELS 3 Zrotation Xrotation Yrotation
												End site
												{
													OFFSET 0.00000 0.00000 0.00000
												}
											}
										}
									}
								}
							}
						}
					}
					JOINT LeftShoulder
					{
						OFFSET 0.01000 7.91373 5.19711
						CHANNELS 3 Zrotation Xrotation Yrotation
						JOINT LeftArm
						{
							OFFSET 18.41580 0.00000 0.00000
							CHANNELS 3 Zrotation Xrotation Yrotation
							JOINT LeftForeArm
							{
								OFFSET 29.11090 0.00000 0.00000
								CHANNELS 3 Zrotation Xrotation Yrotation
								JOINT LeftHand
								{
									OFFSET 24.65040 0.00000 0.00000
									CHANNELS 3 Zrotation Xrotation Yrotation
									JOINT LeftHandThumb1
									{
										OFFSET 5.35114 -0.85590 3.97906
										CHANNELS 3 Zrotation Xrotation Yrotation
										JOINT LeftHandThumb2
										{
											OFFSET 4.52789 0.00000 0.00000
											CHANNELS 3 Zrotation Xrotation Yrotation
											JOINT LeftHandThumb3
											{
												OFFSET 2.46977 0.00000 0.00000
												CHANNELS 3 Zrotation Xrotation Yrotation
												End site
												{
													OFFSET 0.00000 0.00000 0.00000
												}
											}
										}
									}
									JOINT LeftHandIndex1
									{
										OFFSET 14.26970 0.00000 2.88139
										CHANNELS 3 Zrotation Xrotation Yrotation
										JOINT LeftHandIndex2
										{
											OFFSET 5.48836 0.00000 0.00000
											CHANNELS 3 Zrotation Xrotation Yrotation
											JOINT LeftHandIndex3
											{
												OFFSET 3.01859 0.00000 0.00000
												CHANNELS 3 Zrotation Xrotation Yrotation
												End site
												{
													OFFSET 0.00000 0.00000 0.00000
												}
											}
										}
									}
									JOINT LeftHandMiddle1
									{
										OFFSET 14.26970 0.00000 -0.09147
										CHANNELS 3 Zrotation Xrotation Yrotation
										JOINT LeftHandMiddle2
										{
											OFFSET 6.17440 0.00000 0.00000
											CHANNELS 3 Zrotation Xrotation Yrotation
											JOINT LeftHandMiddle3
											{
												OFFSET 3.56744 0.00000 0.00000
												CHANNELS 3 Zrotation Xrotation Yrotation
												End site
												{
													OFFSET 0.00000 0.00000 0.00000
												}
											}
										}
									}
									JOINT LeftHandRing1
									{
										OFFSET 12.69180 0.00000 -3.06433
										CHANNELS 3 Zrotation Xrotation Yrotation
										JOINT LeftHandRing2
										{
											OFFSET 5.62556 0.00000 0.00000
											CHANNELS 3 Zrotation Xrotation Yrotation
											JOINT LeftHandRing3
											{
												OFFSET 3.56744 0.00000 0.00000
												CHANNELS 3 Zrotation Xrotation Yrotation
												End site
												{
													OFFSET 0.00000 0.00000 0.00000
												}
											}
										}
									}
									JOINT LeftHandPinky1
									{
										OFFSET 11.11390 0.00000 -6.03719
										CHANNELS 3 Zrotation Xrotation Yrotation
										JOINT LeftHandPinky2
										{
											OFFSET 4.52789 0.00000 0.00000
											CHANNELS 3 Zrotation Xrotation Yrotation
											JOINT LeftHandPinky3
											{
												OFFSET 2.46976 0.00000 0.00000
												CHANNELS 3 Zrotation Xrotation Yrotation
												End site
												{
													OFFSET 0.00000 0.00000 0.00000
												}
											}
										}
									}
								}
							}
						}
					}
					JOINT pCube4
					{
						OFFSET 0.00000 10.91090 1.10792
						CHANNELS 3 Zrotation Xrotation Yrotation
						End site
						{
							OFFSET 0.00000 0.00000 0.00000
						}
					}
				}
			}
		}
	}
	JOINT RightUpLeg
	{
		OFFSET -9.98441 0.00000 0.00000
		CHANNELS 3 Zrotation Xrotation Yrotation
		JOINT RightLeg
		{
			OFFSET 0.00000 -42.11790 0.00000
			CHANNELS 3 Zrotation Xrotation Yrotation
			JOINT RightFoot
			{
				OFFSET 0.00000 -45.00020 -0.00001
				CHANNELS 3 Zrotation Xrotation Yrotation
				JOINT RightForeFoot
				{
					OFFSET 0.00000 -3.74820 0.00000
					CHANNELS 3 Zrotation Xrotation Yrotation
					JOINT RightToeBase
					{
						OFFSET 0.00000 0.06325 14.43120
						CHANNELS 3 Zrotation Xrotation Yrotation
						End site
						{
							OFFSET 0.00000 0.00000 0.00000
						}
					}
				}
			}
		}
	}
	JOINT LeftUpLeg
	{
		OFFSET 9.98441 0.00000 0.00000
		CHANNELS 3 Zrotation Xrotation Yrotation
		JOINT LeftLeg
		{
			OFFSET 0.00000 -42.11800 0.00000
			CHANNELS 3 Zrotation Xrotation Yrotation
			JOINT LeftFoot
			{
				OFFSET 0.00000 -45.00070 0.00000
				CHANNELS 3 Zrotation Xrotation Yrotation
				JOINT LeftForeFoot
				{
					OFFSET 0.00000 -3.74824 0.00000
					CHANNELS 3 Zrotation Xrotation Yrotation
					JOINT LeftToeBase
					{
						OFFSET 0.00000 0.06325 14.43110
						CHANNELS 3 Zrotation Xrotation Yrotation
						End site
						{
							OFFSET 0.00000 0.00000 0.00000
						}
					}
				}
			}
		}
	}
}
MOTION
Frames: 4
Frame Time: 0.050000
-0.046256668840215384 0.03991125912374985 0.0028875946984503967 -0.005589436890882473 -0.003595631975569147 -0.0040483813200570375 -2.4017999596162127 -0.1716658091035687 -0.9223823760794223 -0.9396761548664246 3.7545055909510814 0.362176329622914 -1.362131749646362 -2.1944824755971726 -1.3081693958714915 0.8192118987062457 0.1885735848334243 -0.8785875509783324 1.2296440356456038 14.651201734590375 -3.5713025670423053 0.3841184595608755 1.2264250030319612 -9.378653056305465 1.5990577153137988 -13.168607050657222 -0.7489041701932013 -7.427929362016384 2.3114190528611958 -15.67158983175505 68.31766262040554 -2.1393954604794128 13.18451930017716 22.480359312100227 3.121798615188349 98.39284220382078 11.013001112872226 -0.3483751893785795 -1.9943339321673719 4.550875891749151 -0.10625294062530974 -1.5441589200069432 0.040649828931219094 -0.02256162038965044 -56.21083491475729 -0.046163410447612956 -0.007606783404989711 -56.259192661934065 -38.799267138933445 0.014492770833829004 -0.03641342955992476 0.010382929763249393 0.01595421782925601 -0.013123604259730427 0.0018690347336468374 -0.002527337666847038 -0.02132295564588601 -36.67855509394693 0.018526236903129593 0.017171635409833644 -0.015260621954630535 0.010680002907636613 -0.014410539453641203 0.021659106554602865 0.03325798931901082 -0.016446722361985435 -19.786317114590922 0.021845295917597315 0.012630081596858033 -0.04757797319603165 -0.04428546677380776 -0.046836408036524516 -0.010237893283782428 0.04845128806594326 -0.009318606133575649 24.08536545415995 0.025747956994458303 0.043226135005714386 28.8414672754238 -0.028162017843988064 -0.031225622401450197 28.891276901154082 0.008512506707214073 -0.041753473333331195 7.30191073597071 1.8002241293525498 13.186359730176468 -68.44065854483233 15.15711046997461 -12.586588549435078 -22.499196078907424 1.9153950975561378 -100.64712961980834 -1.930502730293608 -1.7586103776564328 -1.8420356605298225 -0.4527677756899666 0.023680922255195316 -8.164491014390595 0.040086969155874244 0.009825251512304373 44.572234110039545 0.003776594393057859 -0.003168929821066882 44.53990345997177 12.466309670024273 -0.04696032710541992 0.006422689956704868 -0.025727114827587556 -0.026858790647768225 -0.03464826427055089 -0.006185583510996578 0.02560994450973799 0.009632688093881219 11.085697263787042 0.017065712081172885 0.0008669286164933107 0.02368096963621424 -0.03163712366029748 0.00942821690969061 0.011204644762664187 0.03803561644463629 -0.013762813221601361 4.736100653178776 -0.0032804515897001596 0.027923020206681626 0.04139224015455707 0.021589196555352748 0.017993671418577408 -0.010971366766941935 -0.04465814471709871 0.028385904182143373 -5.607745783643457 -0.04786965272230871 0.04784681053621001 -6.724261346538496 -0.021676417059787137 -0.00471439800712646 -6.6927773519457086 0.042036891834389314 -0.039173683211779074 -0.017322120952149463 0.013725252791890031 0.014999042560515386 8.028757449110008 3.4583450931189175 -19.179773063609076 -0.004427674452233301 10.39124501976059 0.06131030332121436 -5.659236810204682 -15.643240440140753 3.1778869500783107 -0.012900645776869127 -0.04475928299572783 -0.0338655896504967 -0.027772435107077675 4.659672118773401 0.0003384538989014231 12.459249071035623 -8.25154164308257 6.889596653067528 0.03253668585669746 46.34107296917456 -0.02159420477735342 -4.3106205758241956 -14.706882739945728 -3.8725388104316725 -0.024088685088384947 0.026005086542246755 -0.027801456078087004 0.026352009289660607 -10.6982833302437 0.025490370598497937 
0.018514244064738093 -0.010552489424258538 0.014285304968058358 0.010614955033674076 -0.02335724835631317 0.015553976967137279 -2.5477714112552223 -0.1509952284923694 -0.8455442443680912 -0.9739308347922537 3.666073774965174 0.3581647637585324 -1.3884634275697096 -2.184217732208233 -1.2569861262652127 0.7294567048048164 0.15170040405214963 -0.8274644368020627 1.151192715125442 14.680338837508799 -3.3865666696130075 0.43685722729133114 1.3043755795676746 -9.001736498472336 1.604941394656305 -12.925196501325853 -0.7470301809067524 -7.549358878348175 2.42487901967011 -15.501542686437146 67.9293077859167 -2.306840333976784 15.164746860085836 21.964330058874246 2.9277265241536083 98.09423735616274 11.555853193878871 -0.3374918158054481 -2.173764857127075 4.4845326653126385 -0.12218403900760642 -1.5798741926410818 -0.007404914809692482 0.004082918389340313 -56.24047583637654 0.024137945365350185 -0.02947345788561914 -56.196572198656746 -38.80089849274632 -0.022580507570738102 0.02897571004335813 -0.0392008327583277 0.006687563968632206 -0.040064371526920946 0.03546718225367696 0.04637909640194255 -0.030743021323915317 -36.71692391702756 0.018845596534204635 0.008426232388131135 -0.001662238142567998 0.026589737523313454 -0.01316931655953528 0.04659801261364702 -0.002659649149211557 0.025669720478131184 -19.792246429419517 -0.01951885563307868 0.03149548836923355 -0.049293160376123156 -0.037316223004803487 0.009792517155800803 0.03854064685729607 0.01103882029764011 0.005988273261338022 24.08178346531055 0.026692391694901944 0.0033577761234951037 28.85706400285418 0.02648683208489001 0.016124731870277343 28.821155734321774 0.007594552683018821 -0.03587360974655017 7.336493747940134 1.8109747533347607 13.050404388170481 -68.04089375932965 15.677743870205326 -13.709969368729373 -21.392058790231925 1.359796344060661 -99.88263066430686 -2.5646040748173857 -1.9665741186106511 -1.4667321416698151 -0.4423418184340167 0.028205491482011943 -8.106354820312516 0.012543553007279122 -0.036026085351305914 44.54083641046518 0.017679211877410797 -0.03782000086510965 44.549378364332135 12.422453940034526 0.028801974325929666 0.038691816760854814 0.009909657945725212 -0.03388160543800897 0.01091869045093777 -0.04418095041674307 -0.019114085759862443 0.038038392286757705 11.11674294161753 -0.0390896216816121 0.002261472815186725 0.0006993923840029257 -0.013679381402495146 -0.0417939986378098 0.00466882694934257 0.019577933282654492 0.02714171259058982 4.790203633929819 -0.036723797853486354 0.021019069309758328 -0.026481038680483734 0.04630301915602523 -0.02418515728579272 -0.015433280666181501 -0.023408015232045727 0.01981270879315714 -5.64701390919305 -0.046811213455289005 0.003176017308620485 -6.762339717427286 -0.027846777569382256 -0.02452501063706417 -6.684031204531236 0.03778512105223298 0.031101829967227143 0.018870225437466852 -0.012772305134422218 0.047770379675705764 8.01236977260997 3.49462303676933 -19.206457500368895 0.0029870801969422403 10.410071496052065 0.05195442258642784 -5.652174688694281 -15.617329927640698 3.1440415684523537 0.024428826153527258 0.016909851290611844 -0.018732634108468454 0.04310343924289119 4.7448230600516235 -0.02710353180555209 12.463492799903536 -8.22964702783872 6.920363703601292 0.019129768548348504 46.42482996404384 0.033753816574232674 -4.364326165905043 -14.784809319171643 -3.8328511239922274 -0.043546368596414434 0.0029471620089379447 0.008338536732855712 0.042903043069848996 -10.784125553216596 0.017466422334400263 
-0.019422963429226274 -0.010170681100835915 -0.03904296535918948 0.02586710286020167 -0.01478898981932089 0.012676172437942793 -2.6639476904707236 -0.2269695974340223 -0.8776968526302216 -0.9249596390251872 3.665495251175463 0.32694455153785834 -1.4122246270949093 -2.237523163791199 -1.2356864817856568 0.6707093244067285 0.10647564053903141 -0.9123110892956589 1.1661128135024597 14.767596563079096 -3.1814686045767266 0.4688597851703792 1.482340212403187 -8.53428531743325 1.5195385257448988 -12.675892338152755 -0.6570709437093483 -7.655973426932002 2.3961473358228718 -15.24441541769748 67.9158614585779 -1.8018588198958096 17.063130979852495 21.422801859847425 2.989510529811801 97.70862574375163 12.233683747601733 -0.409828312144118 -2.5352012186425013 4.493505135569664 -0.10151002986318332 -1.602662970578044 -0.013925808241514683 -0.009026823843473473 -56.24754317216872 -0.017807990605281033 -0.011445162659603011 -56.20981627800502 -38.731914194662394 -0.028254368665779423 -0.027347097821834764 0.006090139310471538 -0.040366553082565204 -0.011570963993897194 -0.04453466994251771 -0.04281847019190048 -0.03769026491763595 -36.70380331710569 -0.02476818287437515 0.02987582132332052 0.009641408398518932 0.0342439499696417 -0.016827543282728143 -0.03920058578787639 -0.02096179049735117 -0.04496513341721816 -19.75456355382371 -0.01691842837590631 -0.01664198344953655 -0.04600084323684598 0.006202138723264145 -0.030449105161394825 0.005638926341126338 -0.004726859123805113 0.020223751838779835 24.041239246393697 -0.001148325541044089 0.020936077707236003 28.907424446984933 0.004423768084829349 0.030280585489503284 28.865696965876893 0.01613122885617584 0.04945259370701077 7.432732460841626 1.8429016119573838 12.938263137930473 -67.87429229334447 16.28610781356224 -14.806502202536397 -21.56193518810097 1.4746670939910058 -99.43262449015009 -3.467551936230887 -2.170313872292177 -1.107150472850511 -0.48428593179186086 0.09069333951857662 -8.097625851867477 -0.031687662881717246 0.04592089531942531 44.55433781997852 0.010063865043515518 -0.013133779160976177 44.55245469575286 12.485614370818393 0.02070212977923674 0.02209755432949457 -0.04060617443081819 0.03113258914077651 -0.04834380850583647 0.04056985736363218 0.017303502415523055 -0.007967706696449325 11.136261793523394 -0.0037902200057439287 -0.007939884803324141 -0.017623511500473876 0.000552679953540858 0.04274704060820144 0.0029559875229410956 -0.01686797756398834 -0.04017198608054811 4.781630848936951 0.02241557922013079 0.007865855785688821 0.025852548470734094 0.00676156435141946 0.039667842476482 0.015091806954140303 0.047885191980689024 -0.011768108533871346 -5.599171113362453 -0.02011085330243428 -0.02151326997397497 -6.73188605051661 -0.008816476374211195 0.023307418838435554 -6.695396186684568 0.028750753787277396 0.0463631140028559 -0.017747302304537464 -0.016639525178929 0.010889506473700157 8.066040620605245 3.535983772907179 -19.20461909300427 -0.010449378836802073 10.361356241308476 0.023460531856087943 -5.60104694830173 -15.64650773497346 3.1997176283636466 0.044516004431217206 -0.02992290761118261 0.029633578382152824 0.043335678839765086 4.733634658985315 -0.015382739234920829 12.49653825677868 -8.269676378722178 6.888445739706776 0.016674163456094352 46.39417585455506 0.02914338494916364 -4.289192405141581 -14.770535770446447 -3.8774992041478438 -0.04973744872248617 -0.004908312714670741 0.04055808818435127 0.0370921456304154 -10.786535966451893 0.049690407075875936 
-0.02258901631219672 -0.013938711046507339 0.0018358900507811156 -0.0023813264370919065 -0.03478523653287779 0.04647575759200388 -2.7320192290462946 -0.2042478715230797 -0.8056933921974962 -0.9180899817226841 3.622125206283742 0.4082864711433272 -1.3354736523992978 -2.2800762507298264 -1.2088456105847034 0.5076224847641333 0.12721371695744926 -0.8281468187185079 1.1048425203115544 14.880114716082549 -2.884630515852942 0.4641191543498407 1.5788445852088295 -7.837460800491857 1.44180100852389 -12.415081585310016 -0.6161762806069007 -7.748419733113873 2.530776302895169 -15.049743647537344 68.43939103424913 -1.0257529633089761 18.632087355108983 21.703486134590392 3.293537695903235 97.11708410591626 12.911491040746432 -0.4722690468540716 -2.7692517652939648 4.546658652627689 -0.16515835883431287 -1.5481913817370012 0.004435075650839935 -0.01619320202058865 -56.20504927414983 0.008883294271253842 0.018372558848477934 -56.253522654978475 -38.79589299581206 -0.004045959837356384 0.024420501139230628 -0.022979076636355268 -0.03328503460702899 0.027161990207799906 0.025711562627212928 -0.00858391733219131 0.03419984605349855 -36.67973712833678 -0.00984010304647858 -0.014655565518307129 0.04362875019222344 0.011928864377133974 -0.037242923859722825 0.04064533816555154 -0.0036085042813954467 -0.043569631571846394 -19.795335322285595 0.02380972877516193 -0.008410410820769956 -0.025565746465492326 -0.0037047077109400653 0.033853252467880464 -0.0473443469793901 -0.027852015658688965 -0.02579567389486041 24.018375122930472 0.033254047075631905 0.006150547173402777 28.824190580082476 0.01893009465616045 -0.03067145575094963 28.854842608660853 -0.016838583560143373 -0.004880137325846103 7.656322614193214 1.8541429350963725 12.833122374089717 -68.0613144466133 16.220073647418626 -16.255289897272213 -23.031469091381766 2.3223184264775893 -99.28148633153495 -4.16102703742528 -2.2763395542435374 -0.9146856158008612 -0.4690999785279924 0.031804710529857484 -8.129320422436436 0.008661566000514152 -0.009389625443427287 44.56645337804605 -0.009127361544383093 0.020227689894531442 44.601983023662974 12.452644732995413 0.0006787623783178668 0.03295831789594119 -0.024609706545951612 0.019796605329431137 -0.025713908877545252 -0.03538495301325343 0.04915923679071087 0.01614243200999144 11.12310523018649 0.02345330551137518 0.01086690515264824 0.0008386866848466646 0.02093929305621113 0.007944576959504608 0.01566641885545056 0.04646525975898447 -0.03135914815462289 4.815682750951791 0.0008344394262591375 -0.003832906099731918 -0.0026387605344548805 -0.009024961400708987 -0.006206112107106504 0.003063232265744667 0.010545549350068307 0.0046377670743022225 -5.588991128256997 0.016320404360599537 -0.007916605831194029 -6.76895294730483 0.04387058721901044 -0.04073719950771075 -6.673632209910503 0.0414751625245121 -0.003736350014639319 -0.04124696073590803 -0.01011495361207122 0.008215485598230435 8.026202573905817 3.519664980675812 -19.253028130340414 -0.0232073740124124 10.407939189719947 0.02686785267924987 -5.6479313443616785 -15.651757551877473 3.1958461545913437 -0.017497579741347524 0.018025481550373725 0.014097847542263056 0.0023862387217362963 4.689126117274018 -0.04809325783631713 12.499629051192509 -8.227546868157381 6.8504031070008855 0.03255272720602591 46.368672377538594 0.006167337914526165 -4.354038580568868 -14.787686463812491 -3.843620427907472 7.92891435023871e-05 0.003353216548638683 0.010418695120236424 0.00018318001758042146 -10.715043225403816 -0.017835664654989217 
